<svg id="Layer_1" data-name="Layer 1" xmlns="http://www.w3.org/2000/svg" width="210mm" height="210mm" viewBox="0 0 595.28 595.28"><title>EPS logo B&amp;amp;WSVG</title><path d="M282.43,327.42V261.53h40.38V276H299.94v11.43H321.5v14.13H299.94v11.12h22.87v14.76Z"/><path d="M346,327.42H329.16V261.53h18.77q11,0,15.48,1.08A18.22,18.22,0,0,1,371,266.3a19.37,19.37,0,0,1,5.56,7.54,25.48,25.48,0,0,1,1.91,10.06,26.47,26.47,0,0,1-1.89,10.37,18,18,0,0,1-5.58,7.36,17.54,17.54,0,0,1-6.57,3.11q-3.78.94-12.11.94H346Zm0-36.23h3.42q6.48,0,9-1.78t2.56-6.05q0-4.14-2.52-5.9t-8.91-1.75H346Z"/><path d="M385,306.13a32.54,32.54,0,0,0,7.9,6.8,15.38,15.38,0,0,0,7.76,2.25,8.89,8.89,0,0,0,5.92-1.94,6.08,6.08,0,0,0,2.32-4.9,6.42,6.42,0,0,0-2-5.07c-1.33-1.18-4.36-2.4-9.06-3.66q-9.69-2.61-13.69-6.8t-4-11.48q0-9.45,6.32-15.41t16.41-6a36,36,0,0,1,10.33,1.46,33.66,33.66,0,0,1,9.25,4.44l-5.63,12.92a23.55,23.55,0,0,0-6.28-3.94,16.51,16.51,0,0,0-6.37-1.33,8.43,8.43,0,0,0-5.26,1.55,4.83,4.83,0,0,0-2,4,4.89,4.89,0,0,0,1.78,4q1.77,1.49,6.86,2.83l.81.23q11,3,14.45,6.52a16.15,16.15,0,0,1,3.56,5.83,22.29,22.29,0,0,1,1.21,7.54q0,10.5-6.88,16.86t-18.37,6.37a32.41,32.41,0,0,1-12.53-2.34,35.6,35.6,0,0,1-10.88-7.34Z"/><path d="M230.81,304.72V292.84a4.25,4.25,0,0,0-2.12-3.67l-10.28-5.94a4.28,4.28,0,0,0-4.24,0l-10.28,5.94a4.25,4.25,0,0,0-2.12,3.67v11.88a4.22,4.22,0,0,0,2.12,3.66l10.28,5.94a4.23,4.23,0,0,0,4.24,0l10.28-5.94A4.22,4.22,0,0,0,230.81,304.72Z"/><path d="M211.72,253.34a14.49,14.49,0,0,0-12.82,7.53l-7.47,12.64,8,4.75,7.61-12.89.05-.08a5.23,5.23,0,0,1,4.61-2.63H221a5.23,5.23,0,0,1,4.62,2.64l0,.08,7.65,13-7.74,4.67,19.2,4.77,4.76-19.21-8.23,5-7.46-12.68A14.51,14.51,0,0,0,221,253.34Zm-20.64,30.92-19.3,4.36,7.81,4.93L171.4,307.4l-.05.08a13.71,13.71,0,0,0,1,14.47h0l3.39,4.68a14.55,14.55,0,0,0,11.84,6h19.34v-9.33H187.57a5.3,5.3,0,0,1-4.28-2.1l-3.39-4.68a4.19,4.19,0,0,1-.32-4.6l7.89-13.37,8,5Zm62.09,9.52-8,4.72L253,311.92a4.18,4.18,0,0,1-.33,4.58l-3.38,4.68a5.34,5.34,0,0,1-4.29,2.1H230.23V314l-14,14,14,14v-9.33H245a14.57,14.57,0,0,0,11.84-6l3.38-4.68a13.67,13.67,0,0,0,1-14.46l-.05-.08Z"/></svg>